# AST/ASF file generated using VICON BodyLanguage
# -----------------------------------------------
:version 1.10
:name VICON
:units
  mass 1.0
  length 0.45
  angle deg
:documentation
   .ast/.asf automatically generated from VICON data using
   VICON BodyBuilder and BodyLanguage model FoxedUp or BRILLIANT.MOD
:root
   order TX TY TZ RX RY RZ
   axis XYZ
   position 0 0 0  
   orientation 0 0 0 
:bonedata
  begin
     id 1 
     name lhipjoint
     direction 0.643824 -0.71708 0.266994 
     length 2.52133 
     axis 0 0 0  XYZ
  end
  begin
     id 2 
     name lfemur
     direction 0.34202 -0.939693 0  
     length 7.51824  
     axis 0 0 20  XYZ
    dof rx ry rz
    limits (-160.0 20.0)
           (-70.0 70.0)
           (-60.0 70.0)
  end
  begin
     id 3 
     name ltibia
     direction 0.34202 -0.939693 0   
     length 7.3685   
     axis 0 0 20   XYZ
    dof rx
    limits (-10.0 170.0)
  end
  begin
     id 4 
     name lfoot
     direction 0.105419 -0.289636 0.951314   
     length 2.20972   
     axis -90 7.62852e-016 20   XYZ
    dof rx rz
    limits (-45.0 90.0)
           (-70.0 20.0)
  end
  begin
     id 5 
     name ltoes
     direction 1.53549e-011 -4.21833e-011 1   
     length 1.10139   
     axis -90 7.62852e-016 20   XYZ
    dof rx
    limits (-90.0 20.0)
  end
  begin
     id 6 
     name rhipjoint
     direction -0.608823 -0.743445 0.276811   
     length 2.43192  
     axis 0 0 0  XYZ 
  end
  begin
     id 7 
     name rfemur
     direction -0.34202 -0.939693 0   
     length 7.69715   
     axis 0 0 -20   XYZ
    dof rx ry rz
    limits (-160.0 20.0)
           (-70.0 70.0)
           (-70.0 60.0)
  end
  begin
     id 8 
     name rtibia
     direction -0.34202 -0.939693 0   
     length 7.44924   
     axis 0 0 -20   XYZ
    dof rx
    limits (-10.0 170.0)
 end
 begin
     id 9 
     name rfoot
     direction -0.103614 -0.284677 0.953007   
     length 2.22623  
     axis -90 -7.62852e-016 -20   XYZ
    dof rx rz
    limits (-45.0 90.0)
           (-20.0 70.0)
  end
  begin
     id 10 
     name rtoes
     direction -1.53537e-011 -4.22026e-011 1   
     length 1.11   
     axis -90 -7.62852e-016 -20   XYZ
    dof rx
    limits (-90.0 20.0)
  end
  begin
     id 11 
     name lowerback
     direction -0.0101212 0.99662 -0.0815298   
     length 2.08277   
     axis 0 0 0   XYZ
    dof rx ry rz
    limits (-20.0 45.0)
           (-30.0 30.0)
           (-30.0 30.0)
  end
  begin
     id 12 
     name upperback
     direction 0.024314 0.999591 -0.0150645   
     length 2.08524   
     axis 0 0 0   XYZ
    dof rx ry rz
    limits (-20.0 45.0)
           (-30.0 30.0)
           (-30.0 30.0)
  end
  begin
     id 13 
     name thorax
     direction 0.0285959 0.999323 0.0231357   
     length 2.09645   
     axis 0 0 0   XYZ
    dof rx ry rz
    limits (-20.0 45.0)
           (-30.0 30.0)
           (-30.0 30.0)
  end
  begin
     id 14 
     name lowerneck
     direction -0.065512 0.979301 0.191515   
     length 1.63798   
     axis 0 0 0   XYZ
    dof rx ry rz
    limits (-20.0 45.0)
           (-30.0 30.0)
           (-30.0 30.0)
  end
  begin
     id 15 
     name upperneck
     direction 0.0498479 0.98191 -0.182667   
     length 1.68731   
     axis 0 0 0   XYZ
    dof rx ry rz
    limits (-20.0 45.0)
           (-30.0 30.0)
           (-30.0 30.0)
  end
  begin
     id 16
     name head
     direction 0.0230358 0.996257 -0.0833175  
     length 1.69785  
     axis 0 0 0   XYZ
    dof rx ry rz
    limits (-20.0 45.0)
           (-30.0 30.0)
           (-30.0 30.0)
  end
  begin
     id 17 
     name lclavicle
     direction 0.967963 0.201165 -0.150269  
     length 3.63976  
     axis 0 0 0   XYZ
    dof ry rz
    limits (-20.0 10.0)
           (0.0 20.0)
  end
  begin
     id 18 
     name lhumerus
     direction 1 -4.48954e-011 -2.92837e-028   
     length 5.32462   
     axis 180 -30 -90   XYZ
    dof rx ry rz
    limits (-60.0 90.0)
           (-90.0 90.0)
           (-90.0 90.0)
  end
  begin
     id 19
     name lradius
     direction 1 -4.48958e-011 -6.39511e-027   
     length 3.48402   
     axis 180 -30 -90   XYZ
    dof rx
    limits (-10.0 170.0)
  end
  begin
     id 20
     name lwrist
     direction 1 -4.48975e-011 -1.1413e-026   
     length 1.74201   
     axis 6.88575e-015 90 90   XYZ
    dof ry
    limits (-180.0 0.0)
 end
  begin
     id 21 
     name lhand
     direction 1 -4.48899e-011 -2.28192e-026   
     length 0.572476   
     axis 1.45643e-014 90 90   XYZ
    dof rx rz
    limits (-90.0 90.0)
           (-45.0 45.0)
  end
  begin
     id 22 
     name lfingers
     direction 1 -4.49155e-011 -4.5684e-026   
     length 0.461545   
     axis 2.91283e-014 90 90   XYZ
    dof rx
    limits (0.0 90.0)
  end
  begin
     id 23
     name lthumb
     direction 0.707107 -6.34943e-011 0.707107   
     length 0.662688   
     axis -90 45 -2.25915e-014   XYZ
    dof rx rz
    limits (-45.0 45.0)
           (-45.0 45.0)
  end
  begin
     id 24 
     name rclavicle
     direction -0.964103 0.264019 -0.0282629   
     length 3.54491  
     axis 0 0 0   XYZ 
    dof ry rz
    limits (-10.0 20.0)
           (-20.0 0.0)
  end
  begin
     id 25 
     name rhumerus
     direction -1 -4.48964e-011 -2.45032e-027  
     length 5.33589   
     axis 180 30 90   XYZ
    dof rx ry rz
    limits (-90.0 60.0)
           (-90.0 90.0)
           (-90.0 90.0)
  end
  begin
     id 26 
     name rradius
     direction -1 -4.48987e-011 -1.55093e-027   
     length 3.64134   
     axis 180 30 90   XYZ
    dof rx
    limits (-10.0 170.0)
  end
  begin
     id 27 
     name rwrist
     direction -1 -4.4897e-011 -1.14128e-026   
     length 1.82067   
     axis 6.88575e-015 -90 -90   XYZ
    dof ry
    limits (-180.0 0.0)
  end
  begin
     id 28
     name rhand
     direction -1 -4.49021e-011 -2.28301e-026   
     length 0.734811   
     axis 1.45643e-014 -90 -90   XYZ
    dof rx rz
    limits (-90.0 90.0)
           (-45.0 45.0)
  end
  begin
     id 29
     name rfingers
     direction -1 -4.48862e-011 -4.56319e-026   
     length 0.592424   
     axis 2.91283e-014 -90 -90   XYZ
    dof rx
    limits (0.0 90.0)
  end
  begin
     id 30
     name rthumb
     direction -0.707107 -6.34978e-011 0.707107   
     length 0.850605   
     axis -90 -45 2.25915e-014   XYZ
    dof rx rz
    limits (-45.0 45.0)
           (-45.0 45.0)
  end
:hierarchy
  begin
    root lhipjoint rhipjoint lowerback
    lhipjoint lfemur
    lfemur ltibia
    ltibia lfoot
    lfoot ltoes
    rhipjoint rfemur
    rfemur rtibia
    rtibia rfoot
    rfoot rtoes
    lowerback upperback
    upperback thorax
    thorax lowerneck lclavicle rclavicle
    lowerneck upperneck
    upperneck head
    lclavicle lhumerus
    lhumerus lradius
    lradius lwrist
    lwrist lhand lthumb
    lhand lfingers
    rclavicle rhumerus
    rhumerus rradius
    rradius rwrist
    rwrist rhand rthumb
    rhand rfingers
  end

#!OML:ASF F:\VICON\USERDATA\INSTALL\rory3\rory3.ASF
:FULLY-SPECIFIED
:DEGREES
1
root -1.99354 17.6817 0.101187 4.29035 -1.00228 0.398076
lowerback -0.280418 -0.431611 -2.78587
upperback -1.57462 -0.569631 1.90306
thorax -1.41287 -0.236086 3.52538
lowerneck -22.1592 -3.33018 -10.7904
upperneck 25.0155 -2.44448 5.44132
head 12.1479 -1.41654 3.45786
rclavicle 7.36746e-015 -3.97569e-015
rhumerus -33.4578 -17.1679 -76.2329
rradius 29.3471
rwrist 19.2202
rhand -19.7399 0.234878
rfingers 7.12502
rthumb 6.59095 -29.6426
lclavicle 7.36746e-015 -3.97569e-015
lhumerus -32.7918 21.1422 79.0838
lradius 24.6312
lwrist -9.27307
lhand -10.4996 27.6004
lfingers 7.12502
lthumb 15.5025 56.9989
rfemur -10.7374 4.25268 17.5862
rtibia 33.0702
rfoot -23.9983 -6.19239
rtoes 7.12233
lfemur -6.82306 -1.35883 -19.3481
ltibia 26.396
lfoot -18.0167 11.3273
ltoes -21.3858
2
root -1.99262 17.6816 0.100477 4.29826 -0.99633 0.399589
lowerback -0.277465 -0.429935 -2.77762
upperback -1.56526 -0.567425 1.90173
thorax -1.40515 -0.235376 3.51929
lowerneck -22.1475 -3.33672 -10.7795
upperneck 24.9824 -2.45144 5.41773
head 12.1329 -1.42109 3.4449
rclavicle 1.11071e-014 3.97569e-015
rhumerus -33.4755 -17.0664 -76.258
rradius 29.41
rwrist 19.1367
rhand -19.7407 0.507426
rfingers 7.12502
rthumb 6.59019 -29.37
lclavicle 1.11071e-014 3.97569e-015
lhumerus -32.7712 20.9783 79.1446
lradius 24.7192
lwrist -9.09294
lhand -10.5454 28.1218
lfingers 7.12502
lthumb 15.4584 57.5237
rfemur -10.7506 4.21492 17.577
rtibia 33.095
rfoot -24.0079 -6.18043
rtoes 6.93949
lfemur -6.84991 -1.3433 -19.3468
ltibia 26.419
lfoot -18.0438 11.2314
ltoes -21.2668
3
root -1.99205 17.6806 0.0993292 4.28494 -0.994893 0.400513
lowerback -0.259299 -0.424207 -2.77553
upperback -1.52801 -0.560103 1.90681
thorax -1.37763 -0.232757 3.52321
lowerneck -22.1734 -3.35133 -10.826
upperneck 24.9366 -2.46417 5.46183
head 12.1226 -1.42405 3.46643
rclavicle 1.1045e-014 0
rhumerus -33.4233 -17.1328 -76.235
rradius 29.4147
rwrist 19.243
rhand -19.6771 0.701368
rfingers 7.12502
rthumb 6.6515 -29.1742
lclavicle 1.1045e-014 0
lhumerus -32.7408 20.9907 79.1687
lradius 24.812
lwrist -9.11588
lhand -10.5538 28.5974
lfingers 7.12502
lthumb 15.4503 57.9999
rfemur -10.7428 4.22967 17.5696
rtibia 33.0913
rfoot -24.0056 -6.18021
rtoes 7.04814
lfemur -6.86029 -1.33178 -19.3548
ltibia 26.4588
lfoot -18.0269 11.2206
ltoes -21.4064
4
root -1.99233 17.6804 0.0991701 4.25857 -1.01818 0.350976
lowerback -0.207878 -0.395607 -2.71895
upperback -1.51438 -0.522586 1.91332
thorax -1.39588 -0.214499 3.49804
lowerneck -22.1856 -3.37125 -10.8348
upperneck 24.9358 -2.49826 5.49682
head 12.1285 -1.43527 3.47563
rclavicle 7.62836e-015 1.19271e-015
rhumerus -33.3763 -17.2604 -76.2183
rradius 29.349
rwrist 19.3032
rhand -19.6158 0.659559
rfingers 7.12502
rthumb 6.71073 -29.2141
lclavicle 7.62836e-015 1.19271e-015
lhumerus -32.73 20.9303 79.1846
lradius 24.8651
lwrist -9.13445
lhand -10.6166 28.7747
lfingers 7.12502
lthumb 15.3898 58.1819
rfemur -10.7302 4.26646 17.6273
rtibia 33.0838
rfoot -23.9664 -6.21746
rtoes 7.05411
lfemur -6.85053 -1.28482 -19.2975
ltibia 26.5068
lfoot -18.0741 11.2036
ltoes -21.3667
5
root -1.99179 17.6803 0.100167 4.2343 -1.00148 0.272802
lowerback -0.173016 -0.384787 -2.64366
upperback -1.50062 -0.508028 1.94264
thorax -1.40277 -0.208027 3.48591
lowerneck -22.1854 -3.37541 -10.8404
upperneck 24.9369 -2.51083 5.52586
head 12.1305 -1.43755 3.4857
rclavicle -2.93207e-015 -1.47101e-014
rhumerus -33.3453 -17.3022 -76.2024
rradius 29.3011
rwrist 19.3132
rhand -19.6101 0.629686
rfingers 7.12502
rthumb 6.71621 -29.2438
lclavicle -2.93207e-015 -1.47101e-014
lhumerus -32.6831 20.8669 79.2236
lradius 24.8416
lwrist -9.12756
lhand -10.727 28.748
lfingers 7.12502
lthumb 15.2834 58.1633
rfemur -10.6974 4.28139 17.7239
rtibia 33.0707
rfoot -23.9699 -6.25447
rtoes 7.01672
lfemur -6.85034 -1.24708 -19.2049
ltibia 26.5641
lfoot -18.1421 11.1587
ltoes -21.3882
